ffmpeg version n4.4 Copyright (c) 2000-2021 the FFmpeg developers
  built with gcc 11.1.0 (GCC)
  configuration: --prefix=/usr --disable-debug --disable-static --disable-stripping --enable-amf --enable-avisynth --enable-cuda-llvm --enable-lto --enable-fontconfig --enable-gmp --enable-gnutls --enable-gpl --enable-ladspa --enable-libaom --enable-libass --enable-libbluray --enable-libdav1d --enable-libdrm --enable-libfreetype --enable-libfribidi --enable-libgsm --enable-libiec61883 --enable-libjack --enable-libmfx --enable-libmodplug --enable-libmp3lame --enable-libopencore_amrnb --enable-libopencore_amrwb --enable-libopenjpeg --enable-libopus --enable-libpulse --enable-librav1e --enable-librsvg --enable-libsoxr --enable-libspeex --enable-libsrt --enable-libssh --enable-libsvtav1 --enable-libtheora --enable-libv4l2 --enable-libvidstab --enable-libvmaf --enable-libvorbis --enable-libvpx --enable-libwebp --enable-libx264 --enable-libx265 --enable-libxcb --enable-libxml2 --enable-libxvid --enable-libzimg --enable-nvdec --enable-nvenc --enable-shared --enable-version3
  libavutil      56. 70.100 / 56. 70.100
  libavcodec     58.134.100 / 58.134.100
  libavformat    58. 76.100 / 58. 76.100
  libavdevice    58. 13.100 / 58. 13.100
  libavfilter     7.110.100 /  7.110.100
  libswscale      5.  9.100 /  5.  9.100
  libswresample   3.  9.100 /  3.  9.100
  libpostproc    55.  9.100 / 55.  9.100
Input #0, rawvideo, from 'pipe:':
  Duration: N/A, start: 0.000000, bitrate: 2985984 kb/s
  Stream #0:0: Video: rawvideo (RGB[24] / 0x18424752), rgb24, 1920x1080, 2985984 kb/s, 60 tbr, 60 tbn, 60 tbc
Stream mapping:
  Stream #0:0 -> #0:0 (rawvideo (native) -> h264 (libx264))
[libx264 @ 0x5637e643cec0] using cpu capabilities: MMX2 SSE2Fast LZCNT SSSE3 SSE4.2
[libx264 @ 0x5637e643cec0] profile High, level 4.2, 4:2:0, 8-bit
[libx264 @ 0x5637e643cec0] 264 - core 161 r3039 544c61f - H.264/MPEG-4 AVC codec - Copyleft 2003-2021 - http://www.videolan.org/x264.html - options: cabac=1 ref=3 deblock=1:0:0 analyse=0x3:0x113 me=hex subme=7 psy=1 psy_rd=1.00:0.00 mixed_ref=1 me_range=16 chroma_me=1 trellis=1 8x8dct=1 cqm=0 deadzone=21,11 fast_pskip=1 chroma_qp_offset=-2 threads=6 lookahead_threads=1 sliced_threads=0 nr=0 decimate=1 interlaced=0 bluray_compat=0 constrained_intra=0 bframes=3 b_pyramid=2 b_adapt=1 b_bias=0 direct=1 weightb=1 open_gop=0 weightp=2 keyint=250 keyint_min=25 scenecut=40 intra_refresh=0 rc_lookahead=40 rc=crf mbtree=1 crf=15.0 qcomp=0.60 qpmin=0 qpmax=69 qpstep=4 ip_ratio=1.40 aq=1:1.00
Output #0, mp4, to '/home/khosraw/Projects/Python/Khosraw-AbacabaCOVID19/lineGraph (Daily)/lineGraph/coronavirus_2021-06-25-line_vid.mp4':
  Metadata:
    comment         : Made with Video Export for Processing - https://git.io/vAXLk
    encoder         : Lavf58.76.100
  Stream #0:0: Video: h264 (avc1 / 0x31637661), yuv420p(tv, progressive), 1920x1080, q=2-31, 60 fps, 15360 tbn
    Metadata:
      encoder         : Lavc58.134.100 libx264
    Side data:
      cpb: bitrate max/min/avg: 0/0/0 buffer size: 0 vbv_delay: N/A
frame=    1 fps=0.0 q=0.0 size=       0kB time=00:00:00.00 bitrate=N/A speed=N/A    frame=    5 fps=0.0 q=0.0 size=       0kB time=00:00:00.00 bitrate=N/A speed=   0x    frame=   11 fps=9.0 q=0.0 size=       0kB time=00:00:00.00 bitrate=N/A speed=   0x    frame=   18 fps= 10 q=0.0 size=       0kB time=00:00:00.00 bitrate=N/A speed=   0x    frame=   24 fps= 11 q=0.0 size=       0kB time=00:00:00.00 bitrate=N/A speed=   0x    frame=   31 fps= 11 q=0.0 size=       0kB time=00:00:00.00 bitrate=N/A speed=   0x    frame=   37 fps= 11 q=0.0 size=       0kB time=00:00:00.00 bitrate=N/A speed=   0x    frame=   44 fps= 11 q=0.0 size=       0kB time=00:00:00.00 bitrate=N/A speed=   0x    frame=   47 fps= 10 q=0.0 size=       0kB time=00:00:00.00 bitrate=N/A speed=   0x    frame=   51 fps=9.5 q=23.0 size=       0kB time=-00:00:00.03 bitrate=N/A speed=N/A    frame=   56 fps=9.5 q=23.0 size=       0kB time=00:00:00.05 bitrate=   7.7kbits/s speed=0.00848x    frame=   60 fps=9.4 q=23.0 size=     256kB time=00:00:00.11 bitrate=17968.8kbits/s speed=0.0182x    frame=   64 fps=9.1 q=23.0 size=     256kB time=00:00:00.18 bitrate=11437.1kbits/s speed=0.0261x    frame=   68 fps=9.0 q=23.0 size=     512kB time=00:00:00.25 bitrate=16774.4kbits/s speed=0.0332x    frame=   73 fps=9.0 q=23.0 size=     512kB time=00:00:00.33 bitrate=12581.6kbits/s speed=0.0409x    frame=   78 fps=8.9 q=23.0 size=     512kB time=00:00:00.41 bitrate=10065.7kbits/s speed=0.0477x    frame=   83 fps=9.0 q=23.0 size=     512kB time=00:00:00.50 bitrate=8388.3kbits/s speed=0.0541x    frame=   89 fps=9.1 q=23.0 size=     768kB time=00:00:00.60 bitrate=10485.3kbits/s speed=0.0615x    frame=   94 fps=9.1 q=23.0 size=     768kB time=00:00:00.68 bitrate=9206.7kbits/s speed=0.0663x    frame=   99 fps=9.1 q=23.0 size=     768kB time=00:00:00.76 bitrate=8206.0kbits/s speed=0.0708x    frame=  104 fps=9.2 q=23.0 size=    1024kB time=00:00:00.85 bitrate=9868.6kbits/s speed=0.075x    frame=  110 fps=9.2 q=23.0 size=    1024kB time=00:00:00.95 bitrate=8829.9kbits/s speed=0.0798x    frame=  115 fps=9.2 q=23.0 size=    1024kB time=00:00:01.03 bitrate=8117.9kbits/s speed=0.0831x    frame=  120 fps=9.3 q=23.0 size=    1280kB time=00:00:01.11 bitrate=9390.0kbits/s speed=0.0863x    frame=  125 fps=9.3 q=23.0 size=    1280kB time=00:00:01.20 bitrate=8738.0kbits/s speed=0.089x    frame=  131 fps=9.3 q=23.0 size=    1280kB time=00:00:01.30 bitrate=8065.9kbits/s speed=0.0925x    frame=  136 fps=9.3 q=23.0 size=    1536kB time=00:00:01.38 bitrate=9095.9kbits/s speed=0.0951x    frame=  142 fps=9.4 q=23.0 size=    1536kB time=00:00:01.48 bitrate=8482.8kbits/s speed=0.098x    frame=  148 fps=9.4 q=23.0 size=    1536kB time=00:00:01.58 bitrate=7947.0kbits/s speed=0.101x    frame=  154 fps=9.5 q=23.0 size=    1536kB time=00:00:01.68 bitrate=7474.9kbits/s speed=0.103x    frame=  160 fps=9.5 q=23.0 size=    1792kB time=00:00:01.78 bitrate=8231.7kbits/s speed=0.106x    frame=  166 fps=9.5 q=23.0 size=    1792kB time=00:00:01.88 bitrate=7794.7kbits/s speed=0.108x    frame=  172 fps=9.6 q=23.0 size=    1792kB time=00:00:01.98 bitrate=7401.7kbits/s speed=0.111x    frame=  178 fps=9.6 q=23.0 size=    1792kB time=00:00:02.08 bitrate=7046.4kbits/s speed=0.113x    frame=  184 fps=9.7 q=23.0 size=    1792kB time=00:00:02.18 bitrate=6723.7kbits/s speed=0.115x    frame=  190 fps=9.7 q=23.0 size=    2048kB time=00:00:02.28 bitrate=7347.6kbits/s speed=0.117x    frame=  195 fps=9.7 q=23.0 size=    2048kB time=00:00:02.36 bitrate=7088.9kbits/s speed=0.118x    frame=  201 fps=9.7 q=23.0 size=    2048kB time=00:00:02.46 bitrate=6801.5kbits/s speed=0.12x    frame=  206 fps=9.8 q=23.0 size=    2048kB time=00:00:02.55 bitrate=6579.3kbits/s speed=0.121x    frame=  211 fps=9.8 q=23.0 size=    2048kB time=00:00:02.63 bitrate=6371.1kbits/s speed=0.122x    frame=  216 fps=9.7 q=23.0 size=    2048kB time=00:00:02.71 bitrate=6175.7kbits/s speed=0.122x    frame=  221 fps=9.7 q=23.0 size=    2304kB time=00:00:02.80 bitrate=6740.8kbits/s speed=0.123x    frame=  227 fps=9.7 q=23.0 size=    2304kB time=00:00:02.90 bitrate=6508.4kbits/s speed=0.125x    frame=  232 fps=9.8 q=23.0 size=    2304kB time=00:00:02.98 bitrate=6326.6kbits/s speed=0.125x    frame=  237 fps=9.7 q=23.0 size=    2560kB time=00:00:03.06 bitrate=6838.5kbits/s speed=0.126x    frame=  243 fps=9.8 q=23.0 size=    2560kB time=00:00:03.16 bitrate=6622.6kbits/s speed=0.127x    frame=  249 fps=9.8 q=23.0 size=    2816kB time=00:00:03.26 bitrate=7061.8kbits/s speed=0.128x    frame=  255 fps=9.8 q=23.0 size=    2816kB time=00:00:03.36 bitrate=6852.1kbits/s speed=0.129x    frame=  261 fps=9.8 q=23.0 size=    2816kB time=00:00:03.46 bitrate=6654.4kbits/s speed=0.13x    frame=  267 fps=9.8 q=23.0 size=    3072kB time=00:00:03.56 bitrate=7055.8kbits/s speed=0.131x    frame=  273 fps=9.8 q=23.0 size=    3072kB time=00:00:03.66 bitrate=6863.4kbits/s speed=0.132x    frame=  278 fps=9.8 q=23.0 size=    3072kB time=00:00:03.75 bitrate=6710.9kbits/s speed=0.133x    frame=  284 fps=9.8 q=23.0 size=    3328kB time=00:00:03.85 bitrate=7081.3kbits/s speed=0.133x    frame=  289 fps=9.8 q=23.0 size=    3328kB time=00:00:03.93 bitrate=6931.2kbits/s speed=0.134x    frame=  295 fps=9.9 q=23.0 size=    3328kB time=00:00:04.03 bitrate=6759.4kbits/s speed=0.135x    frame=  301 fps=9.9 q=23.0 size=    3584kB time=00:00:04.13 bitrate=7103.2kbits/s speed=0.135x    frame=  307 fps=9.9 q=23.0 size=    3840kB time=00:00:04.23 bitrate=7430.8kbits/s speed=0.136x    frame=  313 fps=9.9 q=23.0 size=    3840kB time=00:00:04.33 bitrate=7259.4kbits/s speed=0.137x    frame=  318 fps=9.9 q=23.0 size=    3840kB time=00:00:04.41 bitrate=7122.4kbits/s speed=0.137x    frame=  323 fps=9.8 q=23.0 size=    3840kB time=00:00:04.50 bitrate=6990.5kbits/s speed=0.137x    frame=  329 fps=9.9 q=23.0 size=    4096kB time=00:00:04.60 bitrate=7294.4kbits/s speed=0.138x    frame=  334 fps=9.9 q=23.0 size=    4096kB time=00:00:04.68 bitrate=7164.6kbits/s speed=0.138x    frame=  340 fps=9.9 q=23.0 size=    4096kB time=00:00:04.78 bitrate=7014.8kbits/s speed=0.139x    frame=  345 fps=9.9 q=23.0 size=    4096kB time=00:00:04.86 bitrate=6894.7kbits/s speed=0.139x    frame=  350 fps=9.9 q=23.0 size=    4352kB time=00:00:04.95 bitrate=7202.3kbits/s speed=0.139x    frame=  355 fps=9.9 q=23.0 size=    4352kB time=00:00:05.03 bitrate=7083.1kbits/s speed=0.14x    frame=  360 fps=9.8 q=23.0 size=    4352kB time=00:00:05.11 bitrate=6967.7kbits/s speed=0.14x    frame=  365 fps=9.8 q=23.0 size=    4608kB time=00:00:05.20 bitrate=7259.4kbits/s speed=0.14x    frame=  371 fps=9.8 q=23.0 size=    4608kB time=00:00:05.30 bitrate=7122.4kbits/s speed=0.141x    frame=  377 fps=9.9 q=23.0 size=    4608kB time=00:00:05.40 bitrate=6990.5kbits/s speed=0.141x    frame=  383 fps=9.9 q=23.0 size=    4864kB time=00:00:05.50 bitrate=7244.7kbits/s speed=0.142x    frame=  388 fps=9.9 q=23.0 size=    4864kB time=00:00:05.58 bitrate=7136.6kbits/s speed=0.142x    frame=  393 fps=9.9 q=23.0 size=    4864kB time=00:00:05.66 bitrate=7031.6kbits/s speed=0.142x    frame=  398 fps=9.8 q=23.0 size=    4864kB time=00:00:05.75 bitrate=6929.7kbits/s speed=0.142x    frame=  404 fps=9.8 q=23.0 size=    5120kB time=00:00:05.85 bitrate=7169.7kbits/s speed=0.143x    frame=  410 fps=9.9 q=23.0 size=    5120kB time=00:00:05.95 bitrate=7049.2kbits/s speed=0.143x    frame=  416 fps=9.9 q=23.0 size=    5120kB time=00:00:06.05 bitrate=6932.7kbits/s speed=0.143x    frame=  421 fps=9.8 q=23.0 size=    5120kB time=00:00:06.13 bitrate=6838.5kbits/s speed=0.143x    frame=  427 fps=9.9 q=23.0 size=    5376kB time=00:00:06.23 bitrate=7065.3kbits/s speed=0.144x    frame=  433 fps=9.9 q=23.0 size=    5376kB time=00:00:06.33 bitrate=6953.7kbits/s speed=0.144x    frame=  438 fps=9.9 q=23.0 size=    5376kB time=00:00:06.41 bitrate=6863.4kbits/s speed=0.144x    frame=  443 fps=9.8 q=23.0 size=    5632kB time=00:00:06.50 bitrate=7098.0kbits/s speed=0.144x    frame=  448 fps=9.8 q=23.0 size=    5632kB time=00:00:06.58 bitrate=7008.2kbits/s speed=0.145x    frame=  453 fps=9.8 q=23.0 size=    5632kB time=00:00:06.66 bitrate=6920.6kbits/s speed=0.145x    frame=  458 fps=9.8 q=23.0 size=    5888kB time=00:00:06.75 bitrate=7145.8kbits/s speed=0.145x    frame=  463 fps=9.8 q=23.0 size=    5888kB time=00:00:06.83 bitrate=7058.7kbits/s speed=0.145x    frame=  468 fps=9.8 q=23.0 size=    5888kB time=00:00:06.91 bitrate=6973.7kbits/s speed=0.145x    frame=  473 fps=9.8 q=23.0 size=    5888kB time=00:00:07.00 bitrate=6890.6kbits/s speed=0.145x    frame=  478 fps=9.8 q=23.0 size=    5888kB time=00:00:07.08 bitrate=6809.6kbits/s speed=0.145x    frame=  483 fps=9.8 q=23.0 size=    6144kB time=00:00:07.16 bitrate=7023.0kbits/s speed=0.145x    frame=  488 fps=9.8 q=23.0 size=    6144kB time=00:00:07.25 bitrate=6942.3kbits/s speed=0.146x    frame=  493 fps=9.8 q=23.0 size=    6144kB time=00:00:07.33 bitrate=6863.4kbits/s speed=0.146x    frame=  498 fps=9.8 q=23.0 size=    6144kB time=00:00:07.41 bitrate=6786.3kbits/s speed=0.146x    frame=  502 fps=9.8 q=23.0 size=    6400kB time=00:00:07.48 bitrate=7006.1kbits/s speed=0.146x    frame=  507 fps=9.8 q=23.0 size=    6400kB time=00:00:07.56 bitrate=6928.9kbits/s speed=0.146x    frame=  512 fps=9.8 q=23.0 size=    6400kB time=00:00:07.65 bitrate=6853.4kbits/s speed=0.146x    frame=  517 fps=9.7 q=23.0 size=    6400kB time=00:00:07.73 bitrate=6779.6kbits/s speed=0.146x    frame=  522 fps=9.7 q=23.0 size=    6656kB time=00:00:07.81 bitrate=6975.6kbits/s speed=0.146x    frame=  528 fps=9.7 q=23.0 size=    6656kB time=00:00:07.91 bitrate=6887.5kbits/s speed=0.146x    frame=  534 fps=9.8 q=23.0 size=    6656kB time=00:00:08.01 bitrate=6801.6kbits/s speed=0.146x    frame=  539 fps=9.8 q=23.0 size=    6912kB time=00:00:08.10 bitrate=6990.5kbits/s speed=0.147x    frame=  544 fps=9.8 q=23.0 size=    6912kB time=00:00:08.18 bitrate=6919.3kbits/s speed=0.147x    frame=  549 fps=9.7 q=23.0 size=    6912kB time=00:00:08.26 bitrate=6849.6kbits/s speed=0.147x    frame=  554 fps=9.7 q=23.0 size=    7168kB time=00:00:08.35 bitrate=7032.4kbits/s speed=0.147x    frame=  559 fps=9.7 q=23.0 size=    7424kB time=00:00:08.43 bitrate=7211.5kbits/s speed=0.147x    frame=  564 fps=9.7 q=23.0 size=    7424kB time=00:00:08.51 bitrate=7141.0kbits/s speed=0.147x    frame=  569 fps=9.7 q=23.0 size=    7680kB time=00:00:08.60 bitrate=7315.6kbits/s speed=0.147x    frame=  574 fps=9.7 q=23.0 size=    7680kB time=00:00:08.68 bitrate=7245.4kbits/s speed=0.147x    frame=  579 fps=9.7 q=23.0 size=    7680kB time=00:00:08.76 bitrate=7176.6kbits/s speed=0.147x    frame=  584 fps=9.7 q=23.0 size=    7680kB time=00:00:08.85 bitrate=7109.0kbits/s speed=0.147x    frame=  589 fps=9.7 q=23.0 size=    7680kB time=00:00:08.93 bitrate=7042.7kbits/s speed=0.147x    frame=  594 fps=9.7 q=23.0 size=    7936kB time=00:00:09.01 bitrate=7210.2kbits/s speed=0.147x    frame=  598 fps=9.7 q=23.0 size=    7936kB time=00:00:09.08 bitrate=7157.2kbits/s speed=0.147x    frame=  603 fps=9.7 q=23.0 size=    7936kB time=00:00:09.16 bitrate=7092.2kbits/s speed=0.147x    frame=  607 fps=9.7 q=23.0 size=    7936kB time=00:00:09.23 bitrate=7041.0kbits/s speed=0.147x    frame=  612 fps=9.7 q=23.0 size=    7936kB time=00:00:09.31 bitrate=6978.0kbits/s speed=0.147x    frame=  617 fps=9.7 q=23.0 size=    8192kB time=00:00:09.40 bitrate=7139.2kbits/s speed=0.147x    frame=  622 fps=9.7 q=23.0 size=    8192kB time=00:00:09.48 bitrate=7076.5kbits/s speed=0.147x    frame=  628 fps=9.7 q=23.0 size=    8192kB time=00:00:09.58 bitrate=7002.7kbits/s speed=0.147x    frame=  634 fps=9.7 q=23.0 size=    8192kB time=00:00:09.68 bitrate=6930.3kbits/s speed=0.148x    frame=  639 fps=9.7 q=23.0 size=    8448kB time=00:00:09.76 bitrate=7085.9kbits/s speed=0.148x    frame=  644 fps=9.7 q=23.0 size=    8448kB time=00:00:09.85 bitrate=7026.0kbits/s speed=0.148x    frame=  649 fps=9.7 q=23.0 size=    8448kB time=00:00:09.93 bitrate=6967.0kbits/s speed=0.148x    frame=  655 fps=9.7 q=23.0 size=    8448kB time=00:00:10.03 bitrate=6897.6kbits/s speed=0.148x    frame=  659 fps=9.7 q=23.0 size=    8704kB time=00:00:10.10 bitrate=7059.7kbits/s speed=0.148x    frame=  664 fps=9.6 q=23.0 size=    8704kB time=00:00:10.18 bitrate=7001.9kbits/s speed=0.148x    frame=  670 fps=9.7 q=23.0 size=    8704kB time=00:00:10.28 bitrate=6933.9kbits/s speed=0.148x    frame=  675 fps=9.6 q=23.0 size=    8704kB time=00:00:10.36 bitrate=6878.1kbits/s speed=0.148x    frame=  680 fps=9.6 q=23.0 size=    8960kB time=00:00:10.45 bitrate=7023.9kbits/s speed=0.148x    frame=  684 fps=9.6 q=23.0 size=    8960kB time=00:00:10.51 bitrate=6979.4kbits/s speed=0.148x    frame=  689 fps=9.6 q=23.0 size=    8960kB time=00:00:10.60 bitrate=6924.6kbits/s speed=0.148x    frame=  695 fps=9.6 q=23.0 size=    8960kB time=00:00:10.70 bitrate=6859.8kbits/s speed=0.148x    frame=  700 fps=9.6 q=23.0 size=    9216kB time=00:00:10.78 bitrate=7001.3kbits/s speed=0.148x    frame=  705 fps=9.6 q=23.0 size=    9216kB time=00:00:10.86 bitrate=6947.6kbits/s speed=0.148x    frame=  710 fps=9.6 q=23.0 size=    9216kB time=00:00:10.95 bitrate=6894.7kbits/s speed=0.148x    frame=  714 fps=9.6 q=23.0 size=    9216kB time=00:00:11.01 bitrate=6853.0kbits/s speed=0.148x    frame=  718 fps=9.5 q=23.0 size=    9216kB time=00:00:11.08 bitrate=6811.8kbits/s speed=0.147x    frame=  723 fps=9.5 q=23.0 size=    9472kB time=00:00:11.16 bitrate=6948.8kbits/s speed=0.147x    frame=  727 fps=9.5 q=23.0 size=    9472kB time=00:00:11.23 bitrate=6907.5kbits/s speed=0.147x    frame=  732 fps=9.5 q=23.0 size=    9472kB time=00:00:11.31 bitrate=6856.7kbits/s speed=0.147x    frame=  737 fps=9.5 q=23.0 size=    9472kB time=00:00:11.40 bitrate=6806.5kbits/s speed=0.147x    frame=  742 fps=9.5 q=23.0 size=    9728kB time=00:00:11.48 bitrate=6939.8kbits/s speed=0.147x    frame=  746 fps=9.5 q=23.0 size=    9728kB time=00:00:11.55 bitrate=6899.7kbits/s speed=0.147x    frame=  751 fps=9.5 q=23.0 size=    9728kB time=00:00:11.63 bitrate=6850.3kbits/s speed=0.147x    frame=  755 fps=9.5 q=23.0 size=    9728kB time=00:00:11.70 bitrate=6811.3kbits/s speed=0.147x    frame=  760 fps=9.5 q=23.0 size=    9984kB time=00:00:11.78 bitrate=6941.1kbits/s speed=0.147x    frame=  765 fps=9.5 q=23.0 size=    9984kB time=00:00:11.86 bitrate=6892.3kbits/s speed=0.147x    frame=  770 fps=9.5 q=23.0 size=    9984kB time=00:00:11.95 bitrate=6844.3kbits/s speed=0.147x    frame=  775 fps=9.5 q=23.0 size=    9984kB time=00:00:12.03 bitrate=6796.9kbits/s speed=0.147x    frame=  780 fps=9.4 q=23.0 size=   10240kB time=00:00:12.11 bitrate=6923.2kbits/s speed=0.147x    frame=  786 fps=9.5 q=23.0 size=   10240kB time=00:00:12.21 bitrate=6866.5kbits/s speed=0.147x    frame=  792 fps=9.5 q=23.0 size=   10240kB time=00:00:12.31 bitrate=6810.8kbits/s speed=0.147x    frame=  797 fps=9.4 q=23.0 size=   10240kB time=00:00:12.40 bitrate=6765.0kbits/s speed=0.147x    frame=  802 fps=9.4 q=23.0 size=   10752kB time=00:00:12.48 bitrate=7055.8kbits/s speed=0.147x    frame=  807 fps=9.4 q=23.0 size=   10752kB time=00:00:12.56 bitrate=7009.0kbits/s speed=0.147x    frame=  812 fps=9.4 q=23.0 size=   10752kB time=00:00:12.65 bitrate=6962.9kbits/s speed=0.147x    frame=  817 fps=9.4 q=23.0 size=   10752kB time=00:00:12.73 bitrate=6917.3kbits/s speed=0.147x    frame=  822 fps=9.4 q=23.0 size=   11008kB time=00:00:12.81 bitrate=7036.0kbits/s speed=0.147x    frame=  827 fps=9.4 q=23.0 size=   11008kB time=00:00:12.90 bitrate=6990.5kbits/s speed=0.147x    frame=  832 fps=9.4 q=23.0 size=   11008kB time=00:00:12.98 bitrate=6945.6kbits/s speed=0.147x    frame=  837 fps=9.4 q=23.0 size=   11008kB time=00:00:13.06 bitrate=6901.3kbits/s speed=0.147x    frame=  842 fps=9.4 q=23.0 size=   11008kB time=00:00:13.15 bitrate=6857.6kbits/s speed=0.147x    frame=  847 fps=9.4 q=23.0 size=   11264kB time=00:00:13.23 bitrate=6972.9kbits/s speed=0.147x    frame=  852 fps=9.4 q=23.0 size=   11264kB time=00:00:13.31 bitrate=6929.3kbits/s speed=0.147x    frame=  857 fps=9.4 q=23.0 size=   11264kB time=00:00:13.40 bitrate=6886.2kbits/s speed=0.147x    frame=  862 fps=9.4 q=23.0 size=   11264kB time=00:00:13.48 bitrate=6843.6kbits/s speed=0.147x    frame=  867 fps=9.4 q=23.0 size=   11520kB time=00:00:13.56 bitrate=6956.2kbits/s speed=0.147x    frame=  872 fps=9.4 q=23.0 size=   11520kB time=00:00:13.65 bitrate=6913.7kbits/s speed=0.147x    frame=  877 fps=9.4 q=23.0 size=   11520kB time=00:00:13.73 bitrate=6871.7kbits/s speed=0.147x    frame=  882 fps=9.4 q=23.0 size=   11520kB time=00:00:13.81 bitrate=6830.3kbits/s speed=0.147x    frame=  887 fps=9.4 q=23.0 size=   11776kB time=00:00:13.90 bitrate=6940.2kbits/s speed=0.147x    frame=  892 fps=9.4 q=23.0 size=   11776kB time=00:00:13.98 bitrate=6898.9kbits/s speed=0.147x    frame=  897 fps=9.4 q=23.0 size=   11776kB time=00:00:14.06 bitrate=6858.0kbits/s speed=0.147x    frame=  902 fps=9.4 q=23.0 size=   11776kB time=00:00:14.15 bitrate=6817.6kbits/s speed=0.147x    frame=  907 fps=9.4 q=23.0 size=   12032kB time=00:00:14.23 bitrate=6925.0kbits/s speed=0.147x    frame=  912 fps=9.4 q=23.0 size=   12032kB time=00:00:14.31 bitrate=6884.7kbits/s speed=0.147x    frame=  917 fps=9.4 q=23.0 size=   12032kB time=00:00:14.40 bitrate=6844.9kbits/s speed=0.147x    frame=  922 fps=9.4 q=23.0 size=   12032kB time=00:00:14.48 bitrate=6805.5kbits/s speed=0.148x    frame=  927 fps=9.4 q=23.0 size=   12288kB time=00:00:14.56 bitrate=6910.5kbits/s speed=0.148x    frame=  932 fps=9.4 q=23.0 size=   12288kB time=00:00:14.65 bitrate=6871.2kbits/s speed=0.148x    frame=  937 fps=9.4 q=23.0 size=   12288kB time=00:00:14.73 bitrate=6832.3kbits/s speed=0.148x    frame=  942 fps=9.4 q=23.0 size=   12288kB time=00:00:14.81 bitrate=6793.9kbits/s speed=0.148x    frame=  947 fps=9.4 q=23.0 size=   12288kB time=00:00:14.90 bitrate=6755.9kbits/s speed=0.148x    frame=  952 fps=9.4 q=23.0 size=   12544kB time=00:00:14.98 bitrate=6858.3kbits/s speed=0.148x    frame=  957 fps=9.4 q=23.0 size=   12544kB time=00:00:15.06 bitrate=6820.4kbits/s speed=0.148x    frame=  962 fps=9.4 q=23.0 size=   12544kB time=00:00:15.15 bitrate=6782.9kbits/s speed=0.148x    frame=  967 fps=9.4 q=23.0 size=   12544kB time=00:00:15.23 bitrate=6745.8kbits/s speed=0.148x    frame=  971 fps=9.4 q=23.0 size=   12544kB time=00:00:15.30 bitrate=6716.4kbits/s speed=0.148x    frame=  976 fps=9.4 q=23.0 size=   12544kB time=00:00:15.38 bitrate=6680.0kbits/s speed=0.148x    frame=  981 fps=9.4 q=23.0 size=   12800kB time=00:00:15.46 bitrate=6779.6kbits/s speed=0.148x    frame=  986 fps=9.4 q=23.0 size=   12800kB time=00:00:15.55 bitrate=6743.3kbits/s speed=0.148x    frame=  991 fps=9.4 q=23.0 size=   12800kB time=00:00:15.63 bitrate=6707.3kbits/s speed=0.148x    frame=  995 fps=9.3 q=23.0 size=   12800kB time=00:00:15.70 bitrate=6678.8kbits/s speed=0.147x    frame=  999 fps=9.3 q=23.0 size=   13056kB time=00:00:15.76 bitrate=6783.6kbits/s speed=0.147x    frame= 1003 fps=9.3 q=23.0 size=   13056kB time=00:00:15.83 bitrate=6755.0kbits/s speed=0.147x    frame= 1008 fps=9.3 q=23.0 size=   13056kB time=00:00:15.91 bitrate=6719.7kbits/s speed=0.147x    frame= 1013 fps=9.3 q=23.0 size=   13056kB time=00:00:16.00 bitrate=6684.7kbits/s speed=0.147x    frame= 1017 fps=9.3 q=23.0 size=   13056kB time=00:00:16.06 bitrate=6656.9kbits/s speed=0.147x    frame= 1022 fps=9.3 q=23.0 size=   13056kB time=00:00:16.15 bitrate=6622.6kbits/s speed=0.147x    frame= 1027 fps=9.3 q=23.0 size=   13312kB time=00:00:16.23 bitrate=6717.8kbits/s speed=0.147x    frame= 1032 fps=9.3 q=23.0 size=   13312kB time=00:00:16.31 bitrate=6683.5kbits/s speed=0.147x    frame= 1037 fps=9.3 q=23.0 size=   13312kB time=00:00:16.40 bitrate=6649.5kbits/s speed=0.147x    frame= 1042 fps=9.3 q=23.0 size=   13568kB time=00:00:16.48 bitrate=6743.1kbits/s speed=0.147x    frame= 1047 fps=9.3 q=23.0 size=   13568kB time=00:00:16.56 bitrate=6709.2kbits/s speed=0.147x    frame= 1050 fps=9.3 q=23.0 size=   13568kB time=00:00:16.61 bitrate=6689.0kbits/s speed=0.147x    frame= 1054 fps=9.3 q=23.0 size=   13824kB time=00:00:16.68 bitrate=6788.0kbits/s speed=0.147x    frame= 1058 fps=9.3 q=23.0 size=   13824kB time=00:00:16.75 bitrate=6761.0kbits/s speed=0.147x    frame= 1063 fps=9.3 q=23.0 size=   14080kB time=00:00:16.83 bitrate=6852.1kbits/s speed=0.147x    frame= 1068 fps=9.3 q=23.0 size=   14080kB time=00:00:16.91 bitrate=6818.3kbits/s speed=0.147x    frame= 1073 fps=9.2 q=23.0 size=   14080kB time=00:00:17.00 bitrate=6784.9kbits/s speed=0.147x    frame= 1078 fps=9.2 q=23.0 size=   14080kB time=00:00:17.08 bitrate=6751.8kbits/s speed=0.147x    frame= 1082 fps=9.2 q=23.0 size=   14080kB time=00:00:17.15 bitrate=6725.6kbits/s speed=0.146x    frame= 1087 fps=9.2 q=23.0 size=   14336kB time=00:00:17.23 bitrate=6814.7kbits/s speed=0.146x    frame= 1092 fps=9.2 q=23.0 size=   14336kB time=00:00:17.31 bitrate=6781.9kbits/s speed=0.146x    frame= 1097 fps=9.2 q=23.0 size=   14336kB time=00:00:17.40 bitrate=6749.5kbits/s speed=0.146x    frame= 1102 fps=9.2 q=23.0 size=   14336kB time=00:00:17.48 bitrate=6717.3kbits/s speed=0.146x    frame= 1107 fps=9.2 q=23.0 size=   14592kB time=00:00:17.56 bitrate=6804.8kbits/s speed=0.146x    frame= 1112 fps=9.2 q=23.0 size=   14592kB time=00:00:17.65 bitrate=6772.7kbits/s speed=0.146x    frame= 1117 fps=9.2 q=23.0 size=   14592kB time=00:00:17.73 bitrate=6740.8kbits/s speed=0.146x    frame= 1121 fps=9.2 q=23.0 size=   14592kB time=00:00:17.80 bitrate=6715.6kbits/s speed=0.146x    frame= 1126 fps=9.2 q=23.0 size=   14592kB time=00:00:17.88 bitrate=6684.3kbits/s speed=0.146x    frame= 1131 fps=9.2 q=23.0 size=   14848kB time=00:00:17.96 bitrate=6770.0kbits/s speed=0.146x    frame= 1136 fps=9.2 q=23.0 size=   14848kB time=00:00:18.05 bitrate=6738.8kbits/s speed=0.146x    frame= 1141 fps=9.2 q=23.0 size=   14848kB time=00:00:18.13 bitrate=6707.8kbits/s speed=0.146x    frame= 1146 fps=9.2 q=23.0 size=   14848kB time=00:00:18.21 bitrate=6677.1kbits/s speed=0.146x    frame= 1149 fps=9.2 q=23.0 size=   14848kB time=00:00:18.26 bitrate=6658.8kbits/s speed=0.146x    frame= 1149 fps=7.7 q=23.0 size=   14848kB time=00:00:18.26 bitrate=6658.8kbits/s speed=0.122x    frame= 1149 fps=7.6 q=-1.0 Lsize=   15501kB time=00:00:19.10 bitrate=6648.5kbits/s speed=0.127x    
video:15487kB audio:0kB subtitle:0kB other streams:0kB global headers:0kB muxing overhead: 0.092448%
[libx264 @ 0x5637e643cec0] frame I:5     Avg QP: 9.07  size:219249
[libx264 @ 0x5637e643cec0] frame P:340   Avg QP:17.14  size: 28563
[libx264 @ 0x5637e643cec0] frame B:804   Avg QP:24.02  size:  6281
[libx264 @ 0x5637e643cec0] consecutive B-frames:  4.1%  6.6%  3.7% 85.6%
[libx264 @ 0x5637e643cec0] mb I  I16..4: 63.4%  9.0% 27.6%
[libx264 @ 0x5637e643cec0] mb P  I16..4:  4.5%  1.3%  0.7%  P16..4:  9.6%  4.2%  3.6%  0.0%  0.0%    skip:76.1%
[libx264 @ 0x5637e643cec0] mb B  I16..4:  0.4%  0.1%  0.0%  B16..8: 12.4%  2.8%  1.1%  direct: 0.9%  skip:82.3%  L0:46.6% L1:46.6% BI: 6.8%
[libx264 @ 0x5637e643cec0] 8x8 transform intra:18.8% inter:19.4%
[libx264 @ 0x5637e643cec0] coded y,uvDC,uvAC intra: 9.0% 22.3% 18.6% inter: 2.7% 4.1% 3.2%
[libx264 @ 0x5637e643cec0] i16 v,h,dc,p: 41% 58%  1%  0%
[libx264 @ 0x5637e643cec0] i8 v,h,dc,ddl,ddr,vr,hd,vl,hu:  7% 22% 71%  0%  0%  0%  0%  0%  0%
[libx264 @ 0x5637e643cec0] i4 v,h,dc,ddl,ddr,vr,hd,vl,hu: 29% 28% 20%  4%  3%  3%  4%  4%  4%
[libx264 @ 0x5637e643cec0] i8c dc,h,v,p: 37% 53%  9%  1%
[libx264 @ 0x5637e643cec0] Weighted P-Frames: Y:0.0% UV:0.0%
[libx264 @ 0x5637e643cec0] ref P L0: 61.0%  4.4% 20.8% 13.8%
[libx264 @ 0x5637e643cec0] ref B L0: 77.6% 18.1%  4.3%
[libx264 @ 0x5637e643cec0] ref B L1: 93.0%  7.0%
[libx264 @ 0x5637e643cec0] kb/s:6624.72
